<?xml version="1.0" standalone="no"?>
<!DOCTYPE svg PUBLIC "-//W3C//DTD SVG 20010904//EN"
 "http://www.w3.org/TR/2001/REC-SVG-20010904/DTD/svg10.dtd">
<svg version="1.0" xmlns="http://www.w3.org/2000/svg"
 width="1280.000000pt" height="1280.000000pt" viewBox="0 0 1280.000000 1280.000000"
 preserveAspectRatio="xMidYMid meet">
<metadata>
Created by potrace 1.15, written by Peter Selinger 2001-2017
</metadata>
<g transform="translate(0.000000,1280.000000) scale(0.100000,-0.100000)"
fill="#ffffff" stroke="none">
<path d="M1601 12775 c-168 -35 -321 -88 -477 -164 -232 -114 -394 -231 -569
-412 -265 -273 -425 -565 -521 -949 l-29 -115 0 -4740 0 -4740 36 -136 c96
-356 261 -654 503 -906 183 -191 353 -314 587 -427 161 -78 306 -127 473 -161
l124 -25 4672 0 4672 0 124 25 c405 82 767 283 1060 588 242 252 407 550 503
906 l36 136 0 4740 0 4740 -29 115 c-96 384 -256 676 -521 949 -176 181 -347
305 -576 415 -161 78 -306 127 -473 161 l-124 25 -4678 -1 -4679 0 -114 -24z
m4319 -1271 c151 -14 278 -29 281 -32 9 -10 148 -2195 140 -2204 -12 -14 -494
-149 -501 -141 -4 4 -60 532 -124 1173 -65 641 -120 1182 -123 1203 -5 36 -5
37 23 32 16 -3 153 -17 304 -31z m-846 7 c3 -5 64 -557 135 -1227 72 -671 133
-1237 136 -1259 l5 -40 -370 -245 c-271 -180 -368 -249 -364 -260 310 -817
1878 -4917 1882 -4922 4 -3 168 45 366 109 197 63 364 112 371 109 16 -6 1418
-2094 1413 -2105 -2 -5 -57 -54 -123 -110 l-120 -101 -92 0 c-126 0 -1529 28
-1728 34 -88 3 -219 6 -292 6 l-132 0 -108 118 c-522 568 -1028 1252 -1426
1922 -218 369 -478 876 -643 1255 -462 1064 -766 2200 -893 3345 -56 502 -79
1039 -62 1457 15 375 25 462 54 489 12 12 392 339 845 728 l823 706 159 0 c87
0 161 -4 164 -9z m3359 -7637 c137 -203 430 -639 652 -970 l404 -601 -188
-187 -188 -188 -728 1008 c-401 555 -739 1023 -751 1040 l-24 30 278 121 c152
67 282 120 287 119 6 -1 122 -169 258 -372z"/>
</g>
</svg>
