<?xml version="1.0" standalone="no"?>
<!DOCTYPE svg PUBLIC "-//W3C//DTD SVG 20010904//EN"
 "http://www.w3.org/TR/2001/REC-SVG-20010904/DTD/svg10.dtd">
<svg version="1.0" xmlns="http://www.w3.org/2000/svg"
 width="1280.000000pt" height="1280.000000pt" viewBox="0 0 1280.000000 1280.000000"
 preserveAspectRatio="xMidYMid meet">
<metadata>
Created by potrace 1.15, written by Peter Selinger 2001-2017
</metadata>
<g transform="translate(0.000000,1280.000000) scale(0.100000,-0.100000)"
fill="#ffffff" stroke="none">
<path d="M6100 12794 c-25 -2 -112 -8 -195 -14 -1286 -94 -2543 -599 -3555
-1429 -1761 -1445 -2619 -3683 -2274 -5931 270 -1755 1275 -3332 2760 -4332
1051 -708 2297 -1088 3564 -1088 1267 0 2513 380 3564 1088 1460 982 2456
2522 2746 4245 420 2491 -657 4980 -2765 6392 -890 596 -1891 948 -2985 1051
-153 14 -753 27 -860 18z m826 -539 c735 -68 1408 -257 2052 -575 257 -127
431 -226 642 -364 1125 -741 1966 -1844 2377 -3116 339 -1050 372 -2206 93
-3275 -222 -851 -615 -1611 -1196 -2310 -144 -174 -544 -572 -724 -722 -943
-782 -2027 -1231 -3255 -1349 -249 -24 -781 -24 -1030 0 -1229 118 -2312 567
-3255 1349 -187 155 -582 551 -736 737 -377 454 -668 926 -897 1457 -489 1129
-605 2418 -325 3633 310 1349 1097 2553 2212 3388 805 603 1760 992 2751 1121
132 17 326 34 510 45 128 8 628 -4 781 -19z"/>
<path d="M6660 9688 l0 -253 213 -1 c163 -1 243 -6 345 -23 584 -93 1084 -352
1484 -770 382 -398 619 -896 693 -1456 10 -70 17 -200 17 -313 l2 -192 250 2
251 3 -1 205 c-1 289 -27 489 -99 765 -102 391 -282 755 -544 1100 -96 127
-384 418 -519 524 -467 368 -1024 592 -1621 651 -57 5 -186 10 -287 10 l-184
0 0 -252z"/>
<path d="M6423 9014 l-32 -5 -3 -248 -3 -249 220 -5 c186 -4 239 -9 343 -31
586 -125 1070 -494 1332 -1015 145 -288 203 -533 204 -858 l1 -193 254 0 253
0 -5 223 c-5 246 -20 360 -72 563 -85 333 -250 660 -468 929 -87 107 -290 304
-405 393 -337 259 -751 428 -1182 482 -96 12 -388 21 -437 14z"/>
<path d="M3760 8754 c-131 -15 -227 -56 -365 -158 -331 -245 -595 -691 -755
-1274 -57 -209 -74 -335 -67 -517 19 -508 249 -1090 702 -1775 200 -303 525
-722 721 -930 89 -94 275 -258 489 -429 674 -541 1355 -918 1896 -1050 183
-44 324 -62 494 -62 169 0 258 13 456 67 673 182 1178 519 1374 918 40 80 47
104 56 196 10 87 9 124 -4 211 -54 362 -261 609 -681 813 -424 207 -751 249
-991 129 -97 -49 -153 -100 -254 -236 -170 -227 -308 -341 -501 -409 -88 -32
-264 -36 -370 -9 -102 25 -259 100 -355 169 -304 216 -939 853 -1179 1182 -58
80 -149 264 -171 345 -42 163 -26 326 48 480 75 154 182 271 384 419 50 37
111 89 135 115 232 258 190 717 -113 1251 -200 353 -473 536 -825 554 -49 2
-105 2 -124 0z"/>
<path d="M6070 7806 l0 -255 123 6 c506 23 990 -262 1207 -711 95 -196 131
-354 131 -576 0 -82 -2 -154 -3 -162 -2 -10 45 -14 248 -16 l251 -2 7 37 c9
57 7 226 -4 331 -86 816 -713 1469 -1521 1587 -63 9 -175 15 -273 15 l-166 0
0 -254z"/>
</g>
</svg>
